<svg width="25" height="25" viewBox="0 0 25 25" fill="none" xmlns="http://www.w3.org/2000/svg">
<rect width="24" height="24" transform="translate(0.0438232 0.951172)" fill="white"/>
<path d="M18.7581 20.8083L11.901 16.2369L5.04382 20.8083V5.95117H18.7581V11.4512" stroke="#BBBBBB" stroke-linecap="round" stroke-linejoin="round"/>
<path fill-rule="evenodd" clip-rule="evenodd" d="M16.6337 13.2482C16.5749 13.2937 16.5185 13.3402 16.4646 13.3874C16.1758 13.64 15.9539 13.9151 15.8012 14.1728C15.6585 14.4135 15.5438 14.694 15.5438 14.9512C15.5438 15.2084 15.6585 15.4888 15.8012 15.7295C15.9539 15.9872 16.1758 16.2623 16.4646 16.515C17.0461 17.0238 17.9105 17.4512 19.0438 17.4512C19.6165 17.4512 20.1205 17.3421 20.554 17.1685L19.758 16.3725C19.5403 16.4225 19.3023 16.4512 19.0438 16.4512C18.1771 16.4512 17.5415 16.1285 17.1231 15.7624C16.9118 15.5775 16.7587 15.3839 16.6615 15.2197C16.5683 15.0624 16.5482 14.9704 16.5446 14.9536L16.544 14.9512L16.5446 14.9487C16.5482 14.9319 16.5683 14.8399 16.6615 14.6826C16.7587 14.5185 16.9118 14.3248 17.1231 14.14C17.1923 14.0794 17.2675 14.02 17.3486 13.9631L16.6337 13.2482ZM20.739 15.9393C20.8202 15.8823 20.8953 15.823 20.9646 15.7624C21.1758 15.5775 21.3289 15.3839 21.4262 15.2197C21.5194 15.0624 21.5394 14.9704 21.5431 14.9536C21.5436 14.951 21.5438 14.9502 21.5438 14.9512C21.5438 14.9515 21.5438 14.9516 21.5438 14.9516C21.5438 14.9516 21.5438 14.9514 21.5437 14.951C21.5433 14.9469 21.5406 14.921 21.5237 14.8715C21.505 14.8165 21.4733 14.7459 21.4252 14.6639C21.3288 14.4998 21.177 14.3085 20.9667 14.1267C20.5504 13.7666 19.9146 13.4512 19.0438 13.4512C18.7853 13.4512 18.5474 13.4799 18.3296 13.5299L17.5336 12.7339C17.9672 12.5603 18.4712 12.4512 19.0438 12.4512C20.1731 12.4512 21.0372 12.8655 21.6209 13.3703C21.9107 13.621 22.1338 13.8959 22.2875 14.1575C22.4329 14.4051 22.5438 14.6885 22.5438 14.9512C22.5438 15.2084 22.4291 15.4888 22.2865 15.7295C22.1337 15.9872 21.9118 16.2623 21.6231 16.515C21.5691 16.5622 21.5127 16.6087 21.4539 16.6542L20.739 15.9393Z" fill="#BBBBBB"/>
<path d="M16.0438 12.4512L21.0438 17.4512" stroke="#BBBBBB" stroke-linecap="round"/>
</svg>
