<svg width="25" height="25" viewBox="0 0 25 25" fill="none" xmlns="http://www.w3.org/2000/svg">
<path d="M5.37463 9.94727H20.2236V20.9197C20.2236 21.1776 20.0156 21.3939 19.7494 21.3939H5.8488C5.59092 21.3939 5.37463 21.1859 5.37463 20.9197V9.94727Z" stroke="black" stroke-miterlimit="10"/>
<path d="M12.8033 16.2188C14.0927 16.2188 15.1408 17.2669 15.1408 18.5563V21.393H10.4657V18.5563C10.4657 17.2669 11.5139 16.2188 12.8033 16.2188Z" stroke="black" stroke-miterlimit="10"/>
<path d="M21.8874 9.68843C21.8874 10.9446 20.8725 11.9595 19.6163 11.9595C18.3602 11.9595 17.3453 10.9446 17.3453 9.68843C17.3453 10.9446 16.3304 11.9595 15.0743 11.9595C13.8182 11.9595 12.8033 10.9446 12.8033 9.68843C12.8033 10.9446 11.7884 11.9595 10.5323 11.9595C9.27615 11.9595 8.26127 10.9446 8.26127 9.68843C8.26127 10.9446 7.24638 11.9595 5.99025 11.9595C4.73412 11.9595 3.71924 10.9446 3.71924 9.68843L5.7906 4.81365C5.85715 4.63064 6.03185 4.50586 6.2315 4.50586H19.3751C19.5748 4.50586 19.7494 4.63064 19.816 4.81365L21.879 9.68012L21.8874 9.68843Z" fill="white" stroke="black" stroke-linejoin="round"/>
<path d="M4.41797 8.64844H21.2218" stroke="black" stroke-linejoin="round"/>
</svg>
